<svg width="68" height="18" viewBox="0 0 68 18" fill="none" xmlns="http://www.w3.org/2000/svg">
    <path d="M8.94188 4.92278C8.65357 6.80755 7.21417 6.80756 5.82211 6.80756H5.03034L5.58544 3.28759C5.61771 3.07459 5.80275 2.91752 6.0179 2.91752H6.38152C7.33036 2.91752 8.22541 2.91752 8.688 3.45757C8.9634 3.7803 9.04731 4.2601 8.94403 4.92063L8.94188 4.92278ZM8.33514 0.00215162H3.08102C2.72171 0.00215162 2.41618 0.262491 2.36024 0.6175L0.236648 14.0885C0.193616 14.3531 0.400165 14.5941 0.669111 14.5941H3.17784C3.53715 14.5941 3.84267 14.3337 3.89861 13.9766L4.47093 10.3426C4.52687 9.98757 4.83239 9.72508 5.1917 9.72508H6.85486C10.3146 9.72508 12.3134 8.05116 12.8341 4.73129C13.0686 3.27899 12.8448 2.13866 12.1649 1.34043C11.4183 0.462587 10.0951 0 8.33514 0V0.00215162Z" fill="#253B80"/>
    <path d="M20.5324 9.75717C20.2893 11.1944 19.149 12.1583 17.6945 12.1583C16.963 12.1583 16.3799 11.9238 16.0055 11.4806C15.6333 11.0395 15.4934 10.4112 15.6096 9.71414C15.8355 8.2898 16.9952 7.29363 18.4282 7.29363C19.1425 7.29363 19.7234 7.5303 20.1064 7.97783C20.4894 8.42966 20.6421 9.06222 20.5324 9.75717ZM24.0395 4.86021H21.5243C21.3091 4.86021 21.1241 5.01727 21.0918 5.23028L20.9799 5.93384L20.8035 5.6778C20.2592 4.88818 19.0435 4.62354 17.8322 4.62354C15.0524 4.62354 12.677 6.72992 12.2166 9.68187C11.9756 11.1557 12.3177 12.5628 13.1547 13.5461C13.9206 14.4497 15.0179 14.8263 16.3239 14.8263C18.5637 14.8263 19.8052 13.3869 19.8052 13.3869L19.6933 14.0861C19.6503 14.3529 19.8568 14.5939 20.1258 14.5939H22.3914C22.7507 14.5939 23.0562 14.3336 23.1121 13.9764L24.4719 5.36583C24.515 5.10118 24.3106 4.86021 24.0416 4.86021H24.0395Z" fill="#253B80"/>
    <path d="M37.4367 4.8625H34.9086C34.6676 4.8625 34.4417 4.98299 34.304 5.18309L30.8185 10.3189L29.3403 5.38318C29.2478 5.07336 28.9617 4.8625 28.6389 4.8625H26.1539C25.8527 4.8625 25.6418 5.15727 25.7386 5.44127L28.5227 13.6129L25.9043 17.3093C25.6977 17.5998 25.9043 18 26.2614 18H28.7852C29.0241 18 29.25 17.8838 29.3855 17.6858L37.7938 5.54885C37.9961 5.25839 37.7874 4.86035 37.4345 4.86035L37.4367 4.8625Z" fill="#253B80"/>
    <path d="M46.4141 4.92278C46.1279 6.80755 44.6863 6.80756 43.2943 6.80756H42.5025L43.0598 3.28759C43.092 3.07459 43.2749 2.91752 43.4922 2.91752H43.8558C44.8047 2.91752 45.6997 2.91752 46.1623 3.45757C46.4377 3.7803 46.5216 4.2601 46.4162 4.92063L46.4141 4.92278ZM45.8073 0.00215162H40.5532C40.1939 0.00215162 39.8884 0.262491 39.8324 0.6175L37.7088 14.0885C37.6658 14.3531 37.8723 14.5941 38.1413 14.5941H40.8372C41.0868 14.5941 41.3019 14.4112 41.3407 14.1616L41.9431 10.3426C41.999 9.98757 42.3046 9.72508 42.6639 9.72508H44.327C47.7889 9.72508 49.7856 8.05116 50.3062 4.73129C50.5429 3.27899 50.3148 2.13866 49.635 1.34043C48.8884 0.462587 47.5651 0 45.8073 0V0.00215162Z" fill="#179BD7"/>
    <path d="M58.0016 9.75717C57.7606 11.1944 56.6181 12.1583 55.1637 12.1583C54.4343 12.1583 53.8491 11.9238 53.4747 11.4806C53.1025 11.0395 52.9626 10.4112 53.081 9.71414C53.309 8.2898 54.4666 7.29363 55.8995 7.29363C56.6138 7.29363 57.1948 7.5303 57.5777 7.97783C57.9629 8.42966 58.1156 9.06222 58.0037 9.75717H58.0016ZM61.5086 4.86021H58.9956C58.7805 4.86021 58.5954 5.01727 58.5632 5.23028L58.4513 5.93384L58.2748 5.6778C57.7305 4.88818 56.517 4.62354 55.3035 4.62354C52.5237 4.62354 50.1505 6.72992 49.6879 9.68187C49.4491 11.1557 49.7891 12.5628 50.6239 13.5461C51.392 14.4497 52.4871 14.8263 53.7931 14.8263C56.0329 14.8263 57.2744 13.3869 57.2744 13.3869L57.1625 14.0861C57.1195 14.3529 57.326 14.5939 57.595 14.5939H59.8606C60.2199 14.5939 60.5254 14.3336 60.5813 13.9764L61.9411 5.36583C61.982 5.10118 61.7776 4.86021 61.5065 4.86021H61.5086Z" fill="#179BD7"/>
    <path d="M64.4741 0.372221L62.3182 14.0885C62.2752 14.3531 62.4817 14.5941 62.7507 14.5941H64.9173C65.2766 14.5941 65.5843 14.3337 65.6381 13.9766L67.7638 0.505618C67.8068 0.238824 67.6003 0 67.3313 0H64.9044C64.6892 0 64.5063 0.157064 64.4719 0.370069L64.4741 0.372221Z" fill="#179BD7"/>
</svg>
